# xmcd
#
# Track frame offsets:
#	150
#	7022
#	11680
#	28200
#	47390
#	51619
#	70648
#	81941
#	106384
#	112114
#	133300
#	151122
#	174797
#	178435
#	206557
#	209756
#	235535
#
# Disc length: 3176 seconds
#
# Revision: 0
# Processed by: cddbd v1.5.2PL0 Copyright (c) Steve Scherf et al.
# Submitted via: dBpowerAMP V4.0
#
DISCID=ef0c6611
DTITLE=Juni Fisher - Cowgirlography
DYEAR=2006
DGENRE=Western
TTITLE0=Wayfaring Rider (Intro)
TTITLE1=The Race Call
TTITLE2=Little Red Horse
TTITLE3=Silver Music (In the Bridle)
TTITLE4=Wayfaring Rider (continued1)
TTITLE5=To Remember the Alamo
TTITLE6=Cowgirlography
TTITLE7=Bring My Fiddle
TTITLE8=Wayfaring Rider (continued2)
TTITLE9=The Brazos
TTITLE10=The West
TTITLE11=I Hope She'll Love Me
TTITLE12=Wayfaring Rider (continued3)
TTITLE13=Ballad of A Runaway Horse
TTITLE14=Wayfaring Rider (continued4)
TTITLE15=Goodnight Good Pony Goodnight
TTITLE16=Wayfaring Rider (outro)
EXTD=
EXTT0=
EXTT1=
EXTT2=
EXTT3=
EXTT4=
EXTT5=
EXTT6=
EXTT7=
EXTT8=
EXTT9=
EXTT10=
EXTT11=
EXTT12=
EXTT13=
EXTT14=
EXTT15=
EXTT16=
PLAYORDER=
